<?xml version="1.0" encoding="UTF-8"?><svg id="Layer_1" xmlns="http://www.w3.org/2000/svg" xmlns:xlink="http://www.w3.org/1999/xlink" viewBox="0 0 125.406 171.716"><defs><style>.cls-1{fill:url(#linear-gradient-2);}.cls-2{fill:url(#linear-gradient);}</style><linearGradient id="linear-gradient" x1=".238" y1="50.968" x2="125.168" y2="50.968" gradientUnits="userSpaceOnUse"><stop offset=".004" stop-color="#2c54a4"/><stop offset="1" stop-color="#2c54a4"/></linearGradient><linearGradient id="linear-gradient-2" x1="0" y1="117.483" x2="125.406" y2="117.483" xlink:href="#linear-gradient"/></defs><path class="cls-2" d="M60.29,20.871L1.468,49.459c-1.64.797-1.64,2.101,0,2.898l59.242,28.792c1.096.533,2.89.533,3.986,0l59.242-28.792c1.64-.797,1.64-2.101,0-2.898l-58.823-28.588c-1.327-.645-3.498-.645-4.825,0ZM46.119,49.459l14.172-6.887c1.327-.645,3.498-.645,4.825,0l14.172,6.887c1.64.797,1.64,2.101,0,2.898l-14.172,6.887c-1.327.645-3.498.645-4.825,0l-14.172-6.887c-1.64-.797-1.64-2.101,0-2.898Z"/><path class="cls-1" d="M122.846,63.433l-60.141,29.289h-.003L2.554,63.587c-1.181-.573-2.554.288-2.554,1.602v75.036c0,.682.389,1.305,1.003,1.602l61.699,29.888h.003l61.702-30.045c.611-.297,1-.92,1-1.599v-75.039c0-1.314-1.376-2.177-2.56-1.599ZM31.351,129.952c-7.072-3.426-12.807-11.988-12.807-19.123s5.734-10.143,12.807-6.716c7.072,3.426,12.807,11.988,12.807,19.122s-5.734,10.143-12.807,6.716ZM109.713,111.293l-9.588,7.784c-.365.297-.653.709-.774,1.118l-3.248,10.783c-.662,2.201-3.432,3.548-4.097,1.994l-3.245-7.618c-.125-.288-.409-.424-.774-.365l-9.591,1.554c-1.958.317-1.958-2.341,0-3.931l9.591-7.784c.365-.297.65-.712.774-1.121l3.245-10.781c.665-2.201,3.435-3.551,4.097-1.994l3.248,7.618c.122.288.409.424.774.365l9.588-1.554c1.958-.317,1.958,2.341,0,3.931Z"/></svg>